<svg height="512pt" viewBox="0 -107 512 512" width="512pt" xmlns="http://www.w3.org/2000/svg"><path d="m472.527344 221.1875c-8.414063 0-15.238282-6.824219-15.238282-15.238281v-117.003907c0-8.417968 6.824219-15.238281 15.238282-15.238281 8.417968 0 15.238281 6.820313 15.238281 15.238281v117.003907c0 8.414062-6.820313 15.238281-15.238281 15.238281zm0 0" fill="#23272b"/><path d="m496.761719 297.050781h-48.46875c-8.414063 0-15.238281-6.824219-15.238281-15.238281v-51.628906c0-21.765625 17.707031-39.472656 39.472656-39.472656s39.472656 17.707031 39.472656 39.46875v51.628906c0 8.417968-6.824219 15.242187-15.238281 15.242187zm0 0" fill="#fff04a"/><path d="m347.496094 67.59375h-207.226563c-8.414062 0-15.238281 6.820312-15.238281 15.238281v114.6875c0 .25.007812.496094.019531.742188.453125 14.828125 14.464844 28.878906 39.570313 39.640625 22.933594 9.832031 51.085937 15.246094 79.265625 15.246094 28.179687 0 56.332031-5.414063 79.265625-15.246094 25.523437-10.941406 39.582031-25.28125 39.582031-40.382813v-114.6875c0-8.417969-6.824219-15.238281-15.238281-15.238281zm0 0" fill="#555a66"/><path d="m347.496094 67.59375h-103.613282v185.554688h.003907c28.179687 0 56.332031-5.414063 79.265625-15.246094 25.523437-10.941406 39.582031-25.28125 39.582031-40.382813v-114.6875c0-8.417969-6.824219-15.238281-15.238281-15.238281zm0 0" fill="#23272b"/><path d="m477.203125 74.441406-228.644531-73.707031c-3.039063-.980469-6.3125-.980469-9.351563 0l-228.644531 73.707031c-6.292969 2.03125-10.5625 7.886719-10.5625 14.503906 0 6.613282 4.269531 12.472657 10.5625 14.503907l228.644531 73.703125c1.519531.492187 3.097657.734375 4.675781.734375 1.578126 0 3.15625-.242188 4.675782-.734375l228.644531-73.703125c6.292969-2.03125 10.5625-7.890625 10.5625-14.503907 0-6.613281-4.265625-12.472656-10.5625-14.503906zm0 0" fill="#7e8596"/><path d="m248.558594 177.152344 228.644531-73.703125c6.292969-2.03125 10.5625-7.890625 10.5625-14.503907 0-6.613281-4.269531-12.472656-10.5625-14.503906l-228.644531-73.707031c-1.519532-.488281-3.097656-.734375-4.675782-.734375v177.886719c1.578126 0 3.15625-.242188 4.675782-.734375zm0 0" fill="#555a66"/></svg>